<svg width="1847" height="465" viewBox="0 0 1847 465" fill="none" xmlns="http://www.w3.org/2000/svg">
<path opacity="0.04" d="M74.2701 6.49997H170.375L243.905 458H172.955L160.055 368.345V369.635H79.4301L66.5301 458H0.740061L74.2701 6.49997ZM151.67 308.36L120.065 85.19H118.775L87.8151 308.36H151.67ZM278.327 6.49997H349.277V458H278.327V6.49997ZM402.414 389.63H470.784V458H402.414V389.63ZM620.177 464.45C586.207 464.45 560.192 454.775 542.132 435.425C524.502 416.075 515.687 388.77 515.687 353.51V110.99C515.687 75.73 524.502 48.425 542.132 29.075C560.192 9.72498 586.207 0.0499754 620.177 0.0499754C654.147 0.0499754 679.947 9.72498 697.577 29.075C715.637 48.425 724.667 75.73 724.667 110.99V158.72H657.587V106.475C657.587 78.525 645.762 64.55 622.112 64.55C598.462 64.55 586.637 78.525 586.637 106.475V358.67C586.637 386.19 598.462 399.95 622.112 399.95C645.762 399.95 657.587 386.19 657.587 358.67V289.655H724.667V353.51C724.667 388.77 715.637 416.075 697.577 435.425C679.947 454.775 654.147 464.45 620.177 464.45ZM767.116 6.49997H838.066V190.325H914.176V6.49997H985.126V458H914.176V254.825H838.066V458H767.116V6.49997ZM1037.97 6.49997H1108.92V458H1037.97V6.49997ZM1262.03 464.45C1228.06 464.45 1202.04 454.775 1183.98 435.425C1166.35 416.075 1157.54 388.77 1157.54 353.51V110.99C1157.54 75.73 1166.35 48.425 1183.98 29.075C1202.04 9.72498 1228.06 0.0499754 1262.03 0.0499754C1296 0.0499754 1321.8 9.72498 1339.43 29.075C1357.49 48.425 1366.52 75.73 1366.52 110.99V158.72H1299.44V106.475C1299.44 78.525 1287.61 64.55 1263.96 64.55C1240.31 64.55 1228.49 78.525 1228.49 106.475V358.67C1228.49 386.19 1240.31 399.95 1263.96 399.95C1287.61 399.95 1299.44 386.19 1299.44 358.67V289.655H1366.52V353.51C1366.52 388.77 1357.49 416.075 1339.43 435.425C1321.8 454.775 1296 464.45 1262.03 464.45ZM1408.97 6.49997H1479.92V196.775L1570.22 6.49997H1641.17L1556.67 172.265L1642.46 458H1568.28L1508.3 256.76L1479.92 314.165V458H1408.97V6.49997ZM1763.86 464.45C1729.46 464.45 1703.45 454.775 1685.82 435.425C1668.19 415.645 1659.37 387.48 1659.37 350.93V325.13H1726.45V356.09C1726.45 385.33 1738.71 399.95 1763.22 399.95C1775.26 399.95 1784.29 396.51 1790.31 389.63C1796.76 382.32 1799.98 370.71 1799.98 354.8C1799.98 335.88 1795.68 319.325 1787.08 305.135C1778.48 290.515 1762.57 273.1 1739.35 252.89C1710.11 227.09 1689.69 203.87 1678.08 183.23C1666.47 162.16 1660.66 138.51 1660.66 112.28C1660.66 76.59 1669.69 49.07 1687.75 29.72C1705.81 9.93998 1732.04 0.0499754 1766.44 0.0499754C1800.41 0.0499754 1826 9.93998 1843.2 29.72C1860.83 49.07 1869.64 77.02 1869.64 113.57V132.275H1802.56V109.055C1802.56 93.575 1799.55 82.395 1793.53 75.515C1787.51 68.205 1778.7 64.55 1767.09 64.55C1743.44 64.55 1731.61 78.955 1731.61 107.765C1731.61 124.105 1735.91 139.37 1744.51 153.56C1753.54 167.75 1769.67 184.95 1792.89 205.16C1822.56 230.96 1842.98 254.395 1854.16 275.465C1865.34 296.535 1870.93 321.26 1870.93 349.64C1870.93 386.62 1861.69 415 1843.2 434.78C1825.14 454.56 1798.69 464.45 1763.86 464.45Z" fill="url(#paint0_linear_302_155)"/>
<defs>
<linearGradient id="paint0_linear_302_155" x1="939.5" y1="-52" x2="939.5" y2="580" gradientUnits="userSpaceOnUse">
<stop stop-color="white"/>
<stop offset="1" stop-color="white" stop-opacity="0"/>
</linearGradient>
</defs>
</svg>
