<svg width="47" height="47" viewBox="0 0 47 47" fill="none" xmlns="http://www.w3.org/2000/svg">
<path d="M43.0834 23.5C43.0834 12.6852 34.3148 3.91663 23.5001 3.91663C12.6853 3.91663 3.91675 12.6852 3.91675 23.5C3.91675 33.2737 11.077 41.3759 20.4404 42.8465V29.1621H15.4668V23.5H20.4404V19.1845C20.4404 14.277 23.3651 11.5643 27.8376 11.5643C29.9801 11.5643 32.2218 11.9471 32.2218 11.9471V16.7666H29.7516C27.3198 16.7666 26.5597 18.2757 26.5597 19.8262V23.5H31.9905L31.123 29.1621H26.5597V42.8465C35.9232 41.3786 43.0834 33.2765 43.0834 23.5Z" fill="#1977F3"/>
<path d="M31.124 29.162L31.9915 23.4998H26.5607V19.8261C26.5607 18.2783 27.318 16.7664 29.7525 16.7664H32.2228V11.947C32.2228 11.947 29.9811 11.5642 27.8385 11.5642C23.3661 11.5642 20.4414 14.2741 20.4414 19.1844V23.4998H15.4678V29.162H20.4414V42.8463C21.4383 43.0033 22.4601 43.0832 23.501 43.0832C24.542 43.0832 25.5638 43.0006 26.5607 42.8463V29.162H31.124Z" fill="#FEFEFE"/>
</svg>
