<svg width="55" height="55" viewBox="0 0 55 55" fill="none" xmlns="http://www.w3.org/2000/svg">
<g filter="url(#filter0_d_411_335)">
<path d="M8.41455 24.9106C8.41455 19.1351 8.41455 16.2473 9.53855 14.0414C10.5272 12.1009 12.1049 10.5233 14.0453 9.53464C16.2512 8.41064 19.139 8.41064 24.9146 8.41064H30.1166C35.8922 8.41064 38.7799 8.41064 40.9859 9.53464C42.9263 10.5233 44.5039 12.1009 45.4926 14.0414C46.6166 16.2473 46.6166 19.1351 46.6166 24.9106V30.1127C46.6166 35.8883 46.6166 38.776 45.4926 40.982C44.5039 42.9224 42.9263 44.5 40.9859 45.4887C38.7799 46.6127 35.8922 46.6127 30.1166 46.6127H24.9145C19.139 46.6127 16.2512 46.6127 14.0453 45.4887C12.1049 44.5 10.5272 42.9224 9.53855 40.982C8.41455 38.776 8.41455 35.8883 8.41455 30.1127V24.9106Z" fill="url(#paint0_radial_411_335)"/>
<path d="M8.41455 24.9106C8.41455 19.1351 8.41455 16.2473 9.53855 14.0414C10.5272 12.1009 12.1049 10.5233 14.0453 9.53464C16.2512 8.41064 19.139 8.41064 24.9146 8.41064H30.1166C35.8922 8.41064 38.7799 8.41064 40.9859 9.53464C42.9263 10.5233 44.5039 12.1009 45.4926 14.0414C46.6166 16.2473 46.6166 19.1351 46.6166 24.9106V30.1127C46.6166 35.8883 46.6166 38.776 45.4926 40.982C44.5039 42.9224 42.9263 44.5 40.9859 45.4887C38.7799 46.6127 35.8922 46.6127 30.1166 46.6127H24.9145C19.139 46.6127 16.2512 46.6127 14.0453 45.4887C12.1049 44.5 10.5272 42.9224 9.53855 40.982C8.41455 38.776 8.41455 35.8883 8.41455 30.1127V24.9106Z" fill="url(#paint1_radial_411_335)"/>
</g>
<path d="M27.5021 14.1316C23.8715 14.1316 23.4159 14.1475 21.99 14.2124C20.5668 14.2775 19.5954 14.5028 18.7454 14.8334C17.8662 15.1749 17.1203 15.6316 16.3773 16.3749C15.6337 17.118 15.1769 17.8638 14.8344 18.7427C14.5029 19.593 14.2774 20.5647 14.2133 21.9873C14.1495 23.4132 14.1328 23.8691 14.1328 27.4996C14.1328 31.1302 14.149 31.5844 14.2136 33.0104C14.279 34.4335 14.5043 35.4049 14.8346 36.2549C15.1764 37.1341 15.6331 37.8799 16.3764 38.623C17.1192 39.3666 17.865 39.8244 18.7437 40.1659C19.5943 40.4965 20.566 40.7218 21.9889 40.7869C23.4148 40.8518 23.8702 40.8677 27.5005 40.8677C31.1313 40.8677 31.5856 40.8518 33.0115 40.7869C34.4347 40.7218 35.4072 40.4965 36.2577 40.1659C37.1367 39.8244 37.8814 39.3666 38.6242 38.623C39.3678 37.8799 39.8245 37.1341 40.1671 36.2552C40.4957 35.4049 40.7213 34.4332 40.7882 33.0106C40.8522 31.5847 40.8689 31.1302 40.8689 27.4996C40.8689 23.8691 40.8522 23.4135 40.7882 21.9876C40.7213 20.5644 40.4957 19.593 40.1671 18.743C39.8245 17.8638 39.3678 17.118 38.6242 16.3749C37.8806 15.6313 37.137 15.1746 36.2569 14.8334C35.4047 14.5028 34.4327 14.2775 33.0095 14.2124C31.5836 14.1475 31.1296 14.1316 27.4979 14.1316H27.5021ZM26.3029 16.5406C26.6588 16.5401 27.056 16.5406 27.5021 16.5406C31.0714 16.5406 31.4945 16.5534 32.904 16.6175C34.2074 16.6771 34.9148 16.8949 35.386 17.0779C36.0099 17.3202 36.4546 17.6098 36.9222 18.0777C37.3901 18.5456 37.6798 18.9912 37.9226 19.615C38.1056 20.0857 38.3237 20.7931 38.383 22.0964C38.4471 23.5057 38.461 23.929 38.461 27.4966C38.461 31.0642 38.4471 31.4875 38.383 32.8967C38.3234 34.2001 38.1056 34.9075 37.9226 35.3782C37.6803 36.002 37.3901 36.4462 36.9222 36.9138C36.4544 37.3817 36.0101 37.6713 35.386 37.9136C34.9153 38.0975 34.2074 38.3147 32.904 38.3743C31.4948 38.4383 31.0714 38.4523 27.5021 38.4523C23.9325 38.4523 23.5095 38.4383 22.1003 38.3743C20.7969 38.3141 20.0895 38.0963 19.618 37.9134C18.9941 37.6711 18.5485 37.3814 18.0806 36.9135C17.6127 36.4457 17.3231 36.0012 17.0802 35.3771C16.8972 34.9064 16.6792 34.199 16.6199 32.8956C16.5558 31.4864 16.543 31.0631 16.543 27.4932C16.543 23.9234 16.5558 23.5023 16.6199 22.0931C16.6795 20.7897 16.8972 20.0823 17.0802 19.6111C17.3225 18.9873 17.6127 18.5417 18.0806 18.0738C18.5485 17.6059 18.9941 17.3163 19.618 17.0734C20.0892 16.8896 20.7969 16.6724 22.1003 16.6125C23.3335 16.5568 23.8114 16.5401 26.3029 16.5373V16.5406ZM34.638 18.7603C33.7523 18.7603 33.0338 19.478 33.0338 20.3639C33.0338 21.2495 33.7523 21.9681 34.638 21.9681C35.5236 21.9681 36.2421 21.2495 36.2421 20.3639C36.2421 19.4783 35.5236 18.7597 34.638 18.7597V18.7603ZM27.5021 20.6346C23.7108 20.6346 20.637 23.7084 20.637 27.4996C20.637 31.2909 23.7108 34.3633 27.5021 34.3633C31.2934 34.3633 34.3661 31.2909 34.3661 27.4996C34.3661 23.7084 31.2931 20.6346 27.5018 20.6346H27.5021ZM27.5021 23.0436C29.963 23.0436 31.9582 25.0385 31.9582 27.4996C31.9582 29.9605 29.963 31.9557 27.5021 31.9557C25.041 31.9557 23.0461 29.9605 23.0461 27.4996C23.0461 25.0385 25.041 23.0436 27.5021 23.0436V23.0436Z" fill="white"/>
<defs>
<filter id="filter0_d_411_335" x="4.41455" y="8.41064" width="46.2021" height="46.202" filterUnits="userSpaceOnUse" color-interpolation-filters="sRGB">
<feFlood flood-opacity="0" result="BackgroundImageFix"/>
<feColorMatrix in="SourceAlpha" type="matrix" values="0 0 0 0 0 0 0 0 0 0 0 0 0 0 0 0 0 0 127 0" result="hardAlpha"/>
<feOffset dy="4"/>
<feGaussianBlur stdDeviation="2"/>
<feComposite in2="hardAlpha" operator="out"/>
<feColorMatrix type="matrix" values="0 0 0 0 0 0 0 0 0 0 0 0 0 0 0 0 0 0 0.25 0"/>
<feBlend mode="normal" in2="BackgroundImageFix" result="effect1_dropShadow_411_335"/>
<feBlend mode="normal" in="SourceGraphic" in2="effect1_dropShadow_411_335" result="shape"/>
</filter>
<radialGradient id="paint0_radial_411_335" cx="0" cy="0" r="1" gradientUnits="userSpaceOnUse" gradientTransform="translate(18.562 49.5551) rotate(-90) scale(37.8611 35.2138)">
<stop stop-color="#FFDD55"/>
<stop offset="0.1" stop-color="#FFDD55"/>
<stop offset="0.5" stop-color="#FF543E"/>
<stop offset="1" stop-color="#C837AB"/>
</radialGradient>
<radialGradient id="paint1_radial_411_335" cx="0" cy="0" r="1" gradientUnits="userSpaceOnUse" gradientTransform="translate(2.0155 11.1627) rotate(78.6806) scale(16.9241 69.7617)">
<stop stop-color="#3771C8"/>
<stop offset="0.128" stop-color="#3771C8"/>
<stop offset="1" stop-color="#6600FF" stop-opacity="0"/>
</radialGradient>
</defs>
</svg>
