<svg width="22" height="22" viewBox="0 0 22 22" fill="none" xmlns="http://www.w3.org/2000/svg">
<path opacity="0.2" d="M14.6313 9.70628L6.41109 17.9264C6.28979 18.0477 6.12532 18.1158 5.95383 18.1158C5.78235 18.1158 5.61787 18.0477 5.49657 17.9264L3.82359 16.2559C3.70237 16.1346 3.63428 15.9701 3.63428 15.7986C3.63428 15.6271 3.70237 15.4627 3.82359 15.3414L12.0438 7.11877L14.6313 9.70628Z" fill="white"/>
<path d="M20.4531 12.9407C20.4531 13.1122 20.3849 13.2768 20.2636 13.3981C20.1423 13.5194 19.9777 13.5875 19.8062 13.5875H18.5124V14.8813C18.5124 15.0529 18.4443 15.2174 18.323 15.3387C18.2016 15.46 18.0371 15.5282 17.8656 15.5282C17.694 15.5282 17.5295 15.46 17.4081 15.3387C17.2868 15.2174 17.2187 15.0529 17.2187 14.8813V13.5875H15.9249C15.7534 13.5875 15.5888 13.5194 15.4675 13.3981C15.3462 13.2768 15.2781 13.1122 15.2781 12.9407C15.2781 12.7691 15.3462 12.6046 15.4675 12.4833C15.5888 12.362 15.7534 12.2938 15.9249 12.2938H17.2187V11C17.2187 10.8285 17.2868 10.664 17.4081 10.5426C17.5295 10.4213 17.694 10.3532 17.8656 10.3532C18.0371 10.3532 18.2016 10.4213 18.323 10.5426C18.4443 10.664 18.5124 10.8285 18.5124 11V12.2938H19.8062C19.9777 12.2938 20.1423 12.362 20.2636 12.4833C20.3849 12.6046 20.4531 12.7691 20.4531 12.9407ZM4.92805 6.47192H6.2218V7.76567C6.2218 7.93724 6.28996 8.10177 6.41127 8.22308C6.53258 8.3444 6.69712 8.41255 6.86868 8.41255C7.04024 8.41255 7.20478 8.3444 7.32609 8.22308C7.4474 8.10177 7.51555 7.93724 7.51555 7.76567V6.47192H8.8093C8.98087 6.47192 9.1454 6.40377 9.26671 6.28246C9.38803 6.16115 9.45618 5.99661 9.45618 5.82505C9.45618 5.65349 9.38803 5.48895 9.26671 5.36764C9.1454 5.24633 8.98087 5.17817 8.8093 5.17817H7.51555V3.88442C7.51555 3.71286 7.4474 3.54833 7.32609 3.42701C7.20478 3.3057 7.04024 3.23755 6.86868 3.23755C6.69712 3.23755 6.53258 3.3057 6.41127 3.42701C6.28996 3.54833 6.2218 3.71286 6.2218 3.88442V5.17817H4.92805C4.75649 5.17817 4.59196 5.24633 4.47064 5.36764C4.34933 5.48895 4.28118 5.65349 4.28118 5.82505C4.28118 5.99661 4.34933 6.16115 4.47064 6.28246C4.59196 6.40377 4.75649 6.47192 4.92805 6.47192ZM15.2781 16.175H14.6312V15.5282C14.6312 15.3566 14.563 15.1921 14.4417 15.0708C14.3204 14.9495 14.1559 14.8813 13.9843 14.8813C13.8127 14.8813 13.6482 14.9495 13.5269 15.0708C13.4056 15.1921 13.3374 15.3566 13.3374 15.5282V16.175H12.6906C12.519 16.175 12.3545 16.2432 12.2331 16.3645C12.1118 16.4858 12.0437 16.6504 12.0437 16.8219C12.0437 16.9935 12.1118 17.158 12.2331 17.2793C12.3545 17.4006 12.519 17.4688 12.6906 17.4688H13.3374V18.1157C13.3374 18.2872 13.4056 18.4518 13.5269 18.5731C13.6482 18.6944 13.8127 18.7625 13.9843 18.7625C14.1559 18.7625 14.3204 18.6944 14.4417 18.5731C14.563 18.4518 14.6312 18.2872 14.6312 18.1157V17.4688H15.2781C15.4496 17.4688 15.6142 17.4006 15.7355 17.2793C15.8568 17.158 15.9249 16.9935 15.9249 16.8219C15.9249 16.6504 15.8568 16.4858 15.7355 16.3645C15.6142 16.2432 15.4496 16.175 15.2781 16.175ZM18.1332 7.1188L6.86868 18.3833C6.62608 18.6258 6.29714 18.7619 5.95416 18.7619C5.61118 18.7619 5.28224 18.6258 5.03964 18.3833L3.36585 16.7111C3.24568 16.591 3.15036 16.4484 3.08533 16.2914C3.02029 16.1344 2.98682 15.9661 2.98682 15.7962C2.98682 15.6263 3.02029 15.458 3.08533 15.3011C3.15036 15.1441 3.24568 15.0014 3.36585 14.8813L14.6312 3.61678C14.7513 3.49661 14.894 3.40129 15.0509 3.33625C15.2079 3.27122 15.3762 3.23774 15.5461 3.23774C15.716 3.23774 15.8843 3.27122 16.0413 3.33625C16.1983 3.40129 16.3409 3.49661 16.461 3.61678L18.1332 5.28895C18.2534 5.40909 18.3487 5.55173 18.4137 5.70871C18.4788 5.86569 18.5122 6.03395 18.5122 6.20387C18.5122 6.3738 18.4788 6.54206 18.4137 6.69904C18.3487 6.85602 18.2534 6.99866 18.1332 7.1188ZM13.7158 9.7063L12.0437 8.03332L4.28118 15.7958L5.95335 17.4688L13.7158 9.7063ZM17.2187 6.20428L15.5457 4.5313L12.9582 7.1188L14.6312 8.79178L17.2187 6.20428Z" fill="white"/>
</svg>
