<svg width="64" height="24" viewBox="0 0 64 24" fill="none" xmlns="http://www.w3.org/2000/svg">
<g clip-path="url(#clip0_426_1345)">
<path d="M38.6282 0.442383V15.1669C38.614 16.3155 38.3894 17.3929 37.9591 18.3709C37.8172 18.6977 37.6541 19.0245 37.4743 19.3442C36.6989 20.7319 35.5687 21.8969 34.2068 22.7139C32.8024 23.5546 31.1923 23.9998 29.5467 23.9998H25.7353V19.7207H29.5467C31.2916 19.7207 32.8993 18.7759 33.7458 17.2556C34.3416 16.1876 34.3581 15.3351 34.3558 15.1764V14.7809L33.8995 14.9207C33.28 15.1101 32.6322 15.2096 31.9843 15.2143H31.9063C31.7834 15.2096 31.6131 15.2072 31.5801 15.2049C28.0264 15.0177 25.2412 12.0767 25.2412 8.508V0.442383H29.5136V8.5364C29.5254 9.8696 30.6107 10.9565 31.9347 10.9565C33.2587 10.9565 34.3558 9.8696 34.3558 8.53166V0.442383H38.6282Z" fill="#FAFBFD"/>
<path d="M23.085 7.1582V14.8307H18.8102V6.87166C18.666 5.64026 17.6233 4.70962 16.382 4.70962C15.1408 4.70962 14.0271 5.71841 13.9491 7.00666V14.8899H9.67436V6.86926C9.52776 5.6379 8.48509 4.70962 7.24383 4.70962C6.6267 4.70962 6.03798 4.94169 5.58639 5.36083C5.13953 5.77761 4.86289 6.3412 4.81324 6.9474V14.8899H0.536133V0.449487C1.50315 0.503953 2.43471 0.871004 3.18184 1.49617L3.38281 1.66193L3.6027 1.51985C5.28139 0.430543 7.38563 0.14164 9.34569 0.781017C10.1662 1.05097 10.9204 1.47486 11.5824 2.03845L11.8141 2.235L12.0434 2.03845C12.1546 1.94373 12.2538 1.86322 12.3508 1.7898C13.5212 0.90889 14.9138 0.442383 16.382 0.442383C17.0913 0.442383 17.7912 0.553682 18.4816 0.77865C19.8198 1.23094 20.9642 2.06213 21.7869 3.18459C22.6357 4.34257 23.085 5.71604 23.085 7.1582Z" fill="#FAFBFD"/>
<path d="M63.3332 7.1582V14.8899H59.0585V6.86926C58.9119 5.6379 57.8692 4.70962 56.628 4.70962C55.3866 4.70962 54.2754 5.71841 54.195 7.00666V14.8899H49.9203V6.86926C49.776 5.6379 48.7334 4.70962 47.4921 4.70962C46.875 4.70962 46.2863 4.94169 45.8347 5.36083C45.3854 5.77761 45.1112 6.3412 45.0592 6.9474V14.8899H40.7844V0.449487C41.7514 0.503953 42.683 0.871004 43.4278 1.49617L43.6288 1.66193L43.8486 1.51985C45.5273 0.430543 47.6316 0.14164 49.594 0.781017C50.4144 1.05097 51.1663 1.47486 51.8307 2.03845L52.0624 2.235L52.2917 2.03845C52.4028 1.94373 52.5022 1.86322 52.5991 1.7898C53.7694 0.90889 55.162 0.442383 56.628 0.442383C57.3372 0.442383 58.0394 0.55605 58.7322 0.781017C60.0586 1.2191 61.2006 2.05029 62.0352 3.18459C62.884 4.34257 63.3332 5.71604 63.3332 7.1582Z" fill="#FAFBFD"/>
</g>
<defs>
<clipPath id="clip0_426_1345">
<rect width="63.3333" height="24" fill="white"/>
</clipPath>
</defs>
</svg>
