<svg width="49" height="49" viewBox="0 0 49 49" fill="none" xmlns="http://www.w3.org/2000/svg">
<g clip-path="url(#clip0_411_329)">
<g filter="url(#filter0_d_411_329)">
<path d="M16.8438 9.1875C13.8152 9.1875 10.8547 10.0856 8.33659 11.7681C5.81846 13.4507 3.85582 15.8422 2.69685 18.6402C1.53788 21.4382 1.23465 24.517 1.82548 27.4873C2.41632 30.4577 3.87469 33.1861 6.01618 35.3276C8.15768 37.4691 10.8861 38.9274 13.8564 39.5183C16.8268 40.1091 19.9056 39.8059 22.7036 38.6469C25.5016 37.4879 27.8931 35.5253 29.5756 33.0072C31.2582 30.489 32.1563 27.5285 32.1563 24.5C32.1563 20.4389 30.543 16.5441 27.6713 13.6724C24.7997 10.8008 20.9049 9.1875 16.8438 9.1875ZM16.8438 29.0938C15.9352 29.0938 15.047 28.8243 14.2916 28.3196C13.5362 27.8148 12.9474 27.0973 12.5997 26.258C12.252 25.4186 12.161 24.4949 12.3383 23.6038C12.5155 22.7127 12.953 21.8942 13.5955 21.2517C14.2379 20.6093 15.0565 20.1718 15.9476 19.9945C16.8387 19.8173 17.7623 19.9082 18.6017 20.2559C19.4411 20.6036 20.1586 21.1924 20.6633 21.9478C21.1681 22.7033 21.4375 23.5914 21.4375 24.5C21.4383 25.1035 21.32 25.7012 21.0895 26.2589C20.8589 26.8166 20.5206 27.3233 20.0938 27.7501C19.6671 28.1768 19.1604 28.5151 18.6027 28.7457C18.045 28.9763 17.4472 29.0946 16.8438 29.0938Z" fill="#00AEEF"/>
</g>
<g filter="url(#filter1_d_411_329)">
<path d="M34.055 20.6719C37.9456 21.7915 42.5381 20.6719 42.5381 20.6719C41.2053 26.4906 36.9791 30.135 30.8847 30.5785C29.703 33.3215 27.7432 35.658 25.2477 37.2992C22.7523 38.9404 19.8305 39.8141 16.8438 39.8125L21.4375 25.2117C26.1599 10.2042 28.5805 9.1875 39.7794 9.1875H47.4688C46.1825 14.8531 41.7492 19.1811 34.055 20.6719Z" fill="#008CCF"/>
</g>
</g>
<defs>
<filter id="filter0_d_411_329" x="-2.46875" y="9.1875" width="38.625" height="38.625" filterUnits="userSpaceOnUse" color-interpolation-filters="sRGB">
<feFlood flood-opacity="0" result="BackgroundImageFix"/>
<feColorMatrix in="SourceAlpha" type="matrix" values="0 0 0 0 0 0 0 0 0 0 0 0 0 0 0 0 0 0 127 0" result="hardAlpha"/>
<feOffset dy="4"/>
<feGaussianBlur stdDeviation="2"/>
<feComposite in2="hardAlpha" operator="out"/>
<feColorMatrix type="matrix" values="0 0 0 0 0 0 0 0 0 0 0 0 0 0 0 0 0 0 0.25 0"/>
<feBlend mode="normal" in2="BackgroundImageFix" result="effect1_dropShadow_411_329"/>
<feBlend mode="normal" in="SourceGraphic" in2="effect1_dropShadow_411_329" result="shape"/>
</filter>
<filter id="filter1_d_411_329" x="12.8438" y="9.1875" width="38.625" height="38.625" filterUnits="userSpaceOnUse" color-interpolation-filters="sRGB">
<feFlood flood-opacity="0" result="BackgroundImageFix"/>
<feColorMatrix in="SourceAlpha" type="matrix" values="0 0 0 0 0 0 0 0 0 0 0 0 0 0 0 0 0 0 127 0" result="hardAlpha"/>
<feOffset dy="4"/>
<feGaussianBlur stdDeviation="2"/>
<feComposite in2="hardAlpha" operator="out"/>
<feColorMatrix type="matrix" values="0 0 0 0 0 0 0 0 0 0 0 0 0 0 0 0 0 0 0.25 0"/>
<feBlend mode="normal" in2="BackgroundImageFix" result="effect1_dropShadow_411_329"/>
<feBlend mode="normal" in="SourceGraphic" in2="effect1_dropShadow_411_329" result="shape"/>
</filter>
<clipPath id="clip0_411_329">
<rect width="49" height="49" fill="white"/>
</clipPath>
</defs>
</svg>
