<svg width="55" height="55" viewBox="0 0 55 55" fill="none" xmlns="http://www.w3.org/2000/svg">
<g filter="url(#filter0_d_411_333)">
<path d="M23.3752 23.1205V21.513C22.8176 21.4247 22.2544 21.3763 21.6898 21.3682C16.2243 21.3565 11.3855 24.9006 9.74415 30.117C8.10284 35.3335 10.0402 41.012 14.5264 44.1354C12.8813 42.3737 11.781 40.1732 11.3582 37.7995C10.9354 35.4258 11.2083 32.9804 12.1438 30.7585C13.0794 28.5365 14.6377 26.633 16.6306 25.2777C18.6235 23.9224 20.9658 23.1733 23.3749 23.1207L23.3752 23.1205Z" fill="#25F4EE"/>
</g>
<path d="M23.6783 41.329C26.7341 41.3248 29.246 38.9159 29.3798 35.8611V8.60105H34.3568C34.2552 8.03143 34.2067 7.4536 34.212 6.875L27.4045 6.875V34.1088C27.2913 37.1791 24.7734 39.6111 21.703 39.616C20.7854 39.6083 19.8829 39.3825 19.0696 38.9573C19.5967 39.688 20.2889 40.2838 21.0898 40.6959C21.8908 41.1081 22.7777 41.325 23.6783 41.329V41.329ZM43.653 17.8501V16.3349C41.8212 16.3356 40.0302 15.7948 38.5046 14.7803C39.8419 16.336 41.6492 17.4136 43.653 17.8501V17.8501Z" fill="#25F4EE"/>
<path d="M38.5039 14.7807C37.001 13.0684 36.1726 10.8671 36.1733 8.58813H34.3561C34.5908 9.84814 35.0796 11.0471 35.7928 12.1118C36.5059 13.1765 37.4284 14.0846 38.5039 14.7807V14.7807ZM21.6892 28.1802C20.4147 28.1867 19.1789 28.6193 18.1784 29.4093C17.1778 30.1993 16.4699 31.3013 16.1672 32.5401C15.8645 33.7789 15.9843 35.0834 16.5077 36.2463C17.031 37.4091 17.9279 38.3635 19.0556 38.9577C18.439 38.1059 18.0698 37.1 17.9887 36.0514C17.9076 35.0027 18.1178 33.952 18.596 33.0154C19.0743 32.0788 19.802 31.2927 20.6988 30.744C21.5956 30.1953 22.6265 29.9053 23.6776 29.9061C24.2491 29.9135 24.8165 30.0026 25.3629 30.1704V23.2393C24.8049 23.1557 24.2418 23.1116 23.6776 23.1076H23.3746V28.3777C22.8254 28.2303 22.2576 28.1638 21.6892 28.1802V28.1802Z" fill="#FE2C55"/>
<path d="M43.6531 17.8499V23.1201C40.2621 23.1135 36.9592 22.0395 34.2121 20.0502V33.8977C34.1975 40.8074 28.5954 46.4013 21.69 46.4013C19.1254 46.4059 16.6225 45.6141 14.5266 44.1351C16.2357 45.9744 18.4587 47.2562 20.9061 47.8133C23.3535 48.3705 25.9119 48.1773 28.248 47.2588C30.5841 46.3403 32.5897 44.7392 34.0034 42.664C35.4171 40.5887 36.1736 38.1356 36.1741 35.6241V21.8158C38.9304 23.792 42.2374 24.852 45.6282 24.8462V18.0602C44.9643 18.0582 44.3025 17.9877 43.6531 17.8499V17.8499Z" fill="#FE2C55"/>
<g filter="url(#filter1_d_411_333)">
<path d="M34.2119 33.8981V20.0506C36.9673 22.0286 40.2749 23.0888 43.666 23.0809V17.8108C41.6626 17.3875 39.8511 16.3239 38.5045 14.7805C37.429 14.0844 36.5065 13.1762 35.7934 12.1115C35.0802 11.0468 34.5914 9.8479 34.3567 8.58789H29.3797V35.8616C29.3312 37.0488 28.9144 38.1914 28.1871 39.1306C27.4598 40.0698 26.4582 40.759 25.3214 41.1024C24.1846 41.4458 22.9692 41.4263 21.844 41.0467C20.7188 40.6671 19.7398 39.9461 19.0429 38.9841C17.915 38.39 17.018 37.4356 16.4945 36.2727C15.971 35.1098 15.8511 33.8051 16.1538 32.5662C16.4565 31.3272 17.1645 30.2251 18.1652 29.4351C19.1659 28.6451 20.4019 28.2125 21.6765 28.2062C22.2481 28.2113 22.816 28.3001 23.3619 28.4698V23.1995C20.9399 23.2406 18.5822 23.986 16.5762 25.3447C14.5703 26.7034 13.0027 28.6167 12.0647 30.8515C11.1267 33.0862 10.8588 35.5457 11.2936 37.9302C11.7284 40.3147 12.8472 42.521 14.5135 44.2803C16.6299 45.7106 19.1364 46.4515 21.6898 46.4017C28.5952 46.4017 34.1973 40.8078 34.2119 33.8981V33.8981Z" fill="black"/>
</g>
<defs>
<filter id="filter0_d_411_333" x="5.1665" y="21.3682" width="22.2087" height="30.7673" filterUnits="userSpaceOnUse" color-interpolation-filters="sRGB">
<feFlood flood-opacity="0" result="BackgroundImageFix"/>
<feColorMatrix in="SourceAlpha" type="matrix" values="0 0 0 0 0 0 0 0 0 0 0 0 0 0 0 0 0 0 127 0" result="hardAlpha"/>
<feOffset dy="4"/>
<feGaussianBlur stdDeviation="2"/>
<feComposite in2="hardAlpha" operator="out"/>
<feColorMatrix type="matrix" values="0 0 0 0 0 0 0 0 0 0 0 0 0 0 0 0 0 0 0.25 0"/>
<feBlend mode="normal" in2="BackgroundImageFix" result="effect1_dropShadow_411_333"/>
<feBlend mode="normal" in="SourceGraphic" in2="effect1_dropShadow_411_333" result="shape"/>
</filter>
<filter id="filter1_d_411_333" x="7.09082" y="8.58789" width="40.5752" height="45.8162" filterUnits="userSpaceOnUse" color-interpolation-filters="sRGB">
<feFlood flood-opacity="0" result="BackgroundImageFix"/>
<feColorMatrix in="SourceAlpha" type="matrix" values="0 0 0 0 0 0 0 0 0 0 0 0 0 0 0 0 0 0 127 0" result="hardAlpha"/>
<feOffset dy="4"/>
<feGaussianBlur stdDeviation="2"/>
<feComposite in2="hardAlpha" operator="out"/>
<feColorMatrix type="matrix" values="0 0 0 0 0 0 0 0 0 0 0 0 0 0 0 0 0 0 0.25 0"/>
<feBlend mode="normal" in2="BackgroundImageFix" result="effect1_dropShadow_411_333"/>
<feBlend mode="normal" in="SourceGraphic" in2="effect1_dropShadow_411_333" result="shape"/>
</filter>
</defs>
</svg>
